<mxfile host="app.diagrams.net" modified="2023-07-11T09:57:30.661Z" agent="Mozilla/5.0 (Windows NT 10.0; Win64; x64) AppleWebKit/537.36 (KHTML, like Gecko) Chrome/114.0.0.0 Safari/537.36 Edg/114.0.1823.67" etag="a3BCdkNgKDd-6f1oMmR2" version="21.6.1" type="device">
  <diagram id="C5RBs43oDa-KdzZeNtuy" name="Page-1">
    <mxGraphModel dx="264" dy="749" grid="1" gridSize="10" guides="1" tooltips="1" connect="1" arrows="1" fold="1" page="1" pageScale="1" pageWidth="827" pageHeight="1169" math="0" shadow="0">
      <root>
        <mxCell id="WIyWlLk6GJQsqaUBKTNV-0" />
        <mxCell id="WIyWlLk6GJQsqaUBKTNV-1" parent="WIyWlLk6GJQsqaUBKTNV-0" />
        <mxCell id="nWjeHIqbqc6IEJR7IItn-0" value="pyqt5" style="shape=folder;fontStyle=1;spacingTop=10;tabWidth=40;tabHeight=14;tabPosition=left;html=1;whiteSpace=wrap;" vertex="1" parent="WIyWlLk6GJQsqaUBKTNV-1">
          <mxGeometry x="230" y="230" width="70" height="50" as="geometry" />
        </mxCell>
        <mxCell id="nWjeHIqbqc6IEJR7IItn-1" value="sys" style="shape=folder;fontStyle=1;spacingTop=10;tabWidth=40;tabHeight=14;tabPosition=left;html=1;whiteSpace=wrap;" vertex="1" parent="WIyWlLk6GJQsqaUBKTNV-1">
          <mxGeometry x="335" y="230" width="70" height="50" as="geometry" />
        </mxCell>
        <mxCell id="nWjeHIqbqc6IEJR7IItn-2" value="qtawesome" style="shape=folder;fontStyle=1;spacingTop=10;tabWidth=40;tabHeight=14;tabPosition=left;html=1;whiteSpace=wrap;" vertex="1" parent="WIyWlLk6GJQsqaUBKTNV-1">
          <mxGeometry x="440" y="230" width="70" height="50" as="geometry" />
        </mxCell>
        <mxCell id="nWjeHIqbqc6IEJR7IItn-3" value="MainUi" style="swimlane;fontStyle=1;align=center;verticalAlign=top;childLayout=stackLayout;horizontal=1;startSize=26;horizontalStack=0;resizeParent=1;resizeParentMax=0;resizeLast=0;collapsible=1;marginBottom=0;whiteSpace=wrap;html=1;" vertex="1" parent="WIyWlLk6GJQsqaUBKTNV-1">
          <mxGeometry x="270" y="320" width="200" height="390" as="geometry" />
        </mxCell>
        <mxCell id="nWjeHIqbqc6IEJR7IItn-5" value="" style="line;strokeWidth=1;fillColor=none;align=left;verticalAlign=middle;spacingTop=-1;spacingLeft=3;spacingRight=3;rotatable=0;labelPosition=right;points=[];portConstraint=eastwest;strokeColor=inherit;fontStyle=1" vertex="1" parent="nWjeHIqbqc6IEJR7IItn-3">
          <mxGeometry y="26" width="200" height="8" as="geometry" />
        </mxCell>
        <mxCell id="nWjeHIqbqc6IEJR7IItn-6" value="_init(): None&lt;br&gt;mousePressEvent(): None&lt;br&gt;mouseMoveEvent(): None&lt;br&gt;mouseReleaseEvent(): None&lt;br&gt;add_but(): None&lt;br&gt;create_widget(): None&lt;br&gt;create_label(): None&lt;br&gt;init_ui(): None&lt;br&gt;add_boolButton(): None&lt;br&gt;right_move(): None&lt;br&gt;slot_max_or_recv(): None&lt;br&gt;init_left_ui(): None&lt;br&gt;init_left_ui_qss(): None&lt;br&gt;right_0and1_run(): None&lt;br&gt;init_right_ui_0(): None&lt;br&gt;init_right_ui_1(): None&lt;br&gt;right_3_labBuild(): None&lt;br&gt;right_3_getText(): None&lt;br&gt;init_right_ui_3(): None&lt;br&gt;init_right_ui_0_qss(): None&lt;br&gt;init_right_ui_1_qss(): None&lt;br&gt;init_right_ui_3_qss(): None&lt;br&gt;Run(): None" style="text;strokeColor=none;fillColor=none;align=left;verticalAlign=top;spacingLeft=4;spacingRight=4;overflow=hidden;rotatable=0;points=[[0,0.5],[1,0.5]];portConstraint=eastwest;whiteSpace=wrap;html=1;fontStyle=1" vertex="1" parent="nWjeHIqbqc6IEJR7IItn-3">
          <mxGeometry y="34" width="200" height="356" as="geometry" />
        </mxCell>
      </root>
    </mxGraphModel>
  </diagram>
</mxfile>
